<svg width="40" height="40" viewBox="0 0 40 40" fill="none" xmlns="http://www.w3.org/2000/svg">
<path d="M3.47916 39.5L0.445831 36.4667L22.6542 14.2583C22.0042 12.7417 21.9139 11.0264 22.3833 9.1125C22.8528 7.19861 23.8819 5.48333 25.4708 3.96667C27.3847 2.05278 29.5153 0.933333 31.8625 0.608333C34.2097 0.283333 36.1236 0.861111 37.6042 2.34167C39.0847 3.82222 39.6625 5.73611 39.3375 8.08333C39.0125 10.4306 37.8931 12.5611 35.9792 14.475C34.4625 16.0639 32.7472 17.0931 30.8333 17.5625C28.9194 18.0319 27.2042 17.9417 25.6875 17.2917L22.9792 20L39.4458 36.4667L36.4125 39.5L19.9458 23.1417L3.47916 39.5ZM9.87083 20.975L3.37083 14.475C1.42083 12.525 0.445831 10.1958 0.445831 7.4875C0.445831 4.77917 1.42083 2.45 3.37083 0.5L16.8042 14.0417L9.87083 20.975Z" fill="black"/>
</svg>
